<svg width="52" height="55" viewBox="0 0 52 55" fill="none" xmlns="http://www.w3.org/2000/svg">
<path d="M0.117512 4.26835L0.4431 0.849731L3.69893 1.93501C9.27883 3.8737 15.2374 4.46863 21.0905 3.67145C27.2409 2.71698 33.5361 3.56514 39.2146 6.11332C42.2249 7.39516 44.8668 9.40961 46.8998 11.9733C48.9327 14.537 50.2921 17.5684 50.8542 20.7917C51.583 24.9556 51.2184 29.2374 49.796 33.2181C48.8802 31.1509 47.81 29.1556 46.5945 27.2491C43.8373 23.1924 40.0169 19.9728 35.5518 17.9428C31.2502 15.9788 26.5484 15.0496 21.823 15.2296C26.3214 15.9174 30.6273 17.5345 34.4665 19.9777C36.3183 21.1413 38.0142 22.5363 39.513 24.1289C40.9465 25.7208 42.2104 27.4576 43.2844 29.3111C45.3015 33.1856 46.7369 37.3361 47.5441 41.629C48.4142 45.9357 48.8864 50.3133 48.9549 54.7066H43.5286C43.2735 50.7666 42.7386 46.8497 41.9278 42.9856C38.1634 45.0183 33.9419 46.055 29.6642 45.9972C25.6745 45.9945 21.7258 45.1918 18.0517 43.6367C-2.59567 34.8189 0.117512 5.48929 0.117512 4.26835Z" fill="#2D8A05" fill-opacity="0.5"/>
</svg>
