<svg width="28" height="20" viewBox="0 0 28 20" fill="none" xmlns="http://www.w3.org/2000/svg">
<path d="M16.8125 17.5H2.75L2.74719 3.34938L13.4666 10.7706C13.6233 10.8791 13.8094 10.9372 14 10.9372C14.1906 10.9372 14.3767 10.8791 14.5334 10.7706L25.25 3.35312V11.875H27.125V2.5C27.1243 2.00295 26.9265 1.52647 26.575 1.175C26.2235 0.823527 25.7471 0.625744 25.25 0.625H2.75C2.25287 0.625496 1.77625 0.8232 1.42472 1.17472C1.0732 1.52625 0.875496 2.00287 0.875 2.5V17.5C0.875744 17.9971 1.07353 18.4735 1.425 18.825C1.77647 19.1765 2.25295 19.3743 2.75 19.375H16.8125V17.5ZM23.1866 2.5L14 8.86L4.81344 2.5H23.1866Z" fill="#111111" fill-opacity="0.57"/>
</svg>
